<?xml version="1.0" standalone="no"?>
<!DOCTYPE svg PUBLIC "-//W3C//DTD SVG 20010904//EN"
 "http://www.w3.org/TR/2001/REC-SVG-20010904/DTD/svg10.dtd">
<svg version="1.0" xmlns="http://www.w3.org/2000/svg"
 width="512.000000pt" height="512.000000pt" viewBox="0 0 512.000000 512.000000"
 preserveAspectRatio="xMidYMid meet">
<metadata>
Created by potrace 1.14, written by Peter Selinger 2001-2017
</metadata>
<g transform="translate(0.000000,512.000000) scale(0.100000,-0.100000)"
fill="#000000" stroke="none">
<path d="M1770 3139 c-77 -15 -187 -76 -251 -140 -107 -107 -162 -254 -162
-429 1 -292 129 -491 371 -575 97 -33 255 -37 379 -10 85 19 242 89 292 130
l31 27 0 231 0 232 -248 0 -247 -1 -3 -100 -3 -100 128 0 128 0 0 -74 0 -75
-80 -40 c-77 -39 -82 -40 -180 -40 -111 0 -143 10 -213 70 -39 34 -85 114 -96
170 -4 17 -9 41 -12 55 -7 35 -7 158 1 200 9 54 15 72 38 118 29 60 72 100
142 133 53 24 70 27 145 25 64 -1 95 -7 126 -23 47 -25 94 -75 113 -121 15
-37 5 -36 154 -7 43 8 81 15 83 15 13 0 0 55 -26 108 -81 160 -224 233 -454
231 -61 -1 -131 -5 -156 -10z"/>
<path d="M3606 3142 c-3 -5 -8 -24 -11 -43 -3 -19 -19 -86 -34 -149 -16 -63
-41 -167 -56 -230 -15 -63 -51 -214 -81 -336 -29 -122 -56 -234 -59 -250 -3
-16 -12 -54 -20 -84 -22 -83 -25 -80 65 -80 l79 0 10 38 c21 81 43 168 46 182
4 20 34 143 106 439 32 134 61 253 64 265 2 11 14 59 25 106 12 47 24 100 27
118 l5 32 -81 0 c-44 0 -82 -4 -85 -8z"/>
<path d="M2936 2652 c0 -390 -2 -438 -15 -438 -9 0 -103 -1 -209 -2 l-193 -2
2 -90 2 -90 323 0 323 0 -3 528 -3 527 -114 3 -114 3 1 -439z"/>
<path d="M1065 2924 c-82 -36 -168 -73 -190 -83 -22 -10 -127 -56 -232 -101
l-193 -84 0 -96 0 -97 43 -18 c23 -11 75 -34 115 -52 41 -18 76 -33 78 -33 3
0 25 -9 50 -20 61 -27 111 -49 239 -105 61 -26 138 -61 173 -76 34 -16 67 -29
72 -29 6 0 10 43 10 108 0 103 -1 109 -22 119 -13 5 -129 52 -258 103 -129 51
-238 96 -242 99 -4 3 86 42 200 85 114 43 232 89 262 101 l55 21 3 112 c1 62
-1 112 -5 111 -4 0 -75 -30 -158 -65z"/>
<path d="M3892 2879 l3 -111 120 -47 c66 -26 184 -71 262 -101 78 -30 139 -58
135 -62 -6 -5 -226 -93 -482 -192 l-35 -14 -3 -111 c-1 -61 0 -111 4 -111 6 0
232 97 342 146 29 13 54 24 57 24 2 0 36 15 77 33 40 19 124 56 186 82 l112
49 0 96 0 97 -137 58 c-138 58 -213 91 -288 125 -70 32 -346 150 -351 150 -2
0 -3 -50 -2 -111z"/>
</g>
</svg>
